
<svg xmlns="http://www.w3.org/2000/svg" viewBox="0 0 1964.0845 260.7874">
  <defs>
    <style>
      .cls-1 {
        fill: #d69c65;
      }
    </style>
  </defs>
  <path class="cls-1" d="M183.5681,234.8216c-14.8918,9.0638-31.046,13.5956-48.4627,13.5956H52.1282L179.2415,45.034c10.5928-16.5954,18.244-27.6601,22.9536-33.194,4.7035-5.5277,9.649-8.8247,14.8274-9.8849V.5425H29.7078l-10.9482,53.494c7.8841-15.5352,19.2705-27.8348,34.1622-36.8986,14.8887-9.0607,31.0429-13.5956,48.4627-13.5956h69.207L49.303,197.0406c-11.2975,17.7752-20.2449,30.7181-26.8359,38.8412-6.5941,8.12-12.5967,13.3015-18.008,15.5353h202.3261l10.9452-53.494c-7.8871,15.5353-19.2735,27.8379-34.1623,36.8986"/>
  <path class="cls-1" d="M314.3318.5425h-23.1282v.5301c6.4715.5883,11.9441,3.3277,16.4208,8.2119,4.4706,4.8812,6.7074,10.6204,6.7074,17.2114v199.1455c0,6.4746-2.2062,12.1555-6.6216,17.0367-4.4124,4.8842-9.9156,7.6236-16.5066,8.2088v.5301h75.3874v-.5301c-6.4746-.5852-11.892-3.294-16.2431-8.12-4.3542-4.823-6.5941-10.4733-6.7105-16.9479V26.1405c.1164-6.4715,2.3563-12.1218,6.7105-16.9479,4.3511-4.823,9.7685-7.5317,16.2431-8.12v-.5301h-52.2591Z"/>
  <path class="cls-1" d="M700.0742,9.5465l.3524,211.5032v4.5901c0,6.5941-2.2062,12.3026-6.6186,17.1255-4.4154,4.8291-9.8605,7.5348-16.3319,8.1231v.5301h75.3874v-.5301c-6.594-.5883-12.0942-3.3246-16.5097-8.2089-4.4124-4.8843-6.6186-10.5621-6.6186-17.0398V26.3197c0-6.4745,2.2062-12.1524,6.6186-17.0367,4.4155-4.8842,9.9156-7.6205,16.5097-8.212v-.527h-51.3767l-103.6327,175.8395L481.1557.544h-36.0161l13.0625,20.1254c6.2387,9.6521,9.3579,20.3613,9.3579,32.1307v158.8948c-.1164,8.5919-2.5586,16.4484-7.3264,23.5695-4.7678,7.1211-11.1535,12.3302-19.154,15.6241v.5301h56.1414v-.5301c-8.0067-3.294-14.4506-8.5612-19.3318-15.8049-4.8843-7.2345-7.3264-15.1492-7.3264-23.7441V40.09l137.7062,211.3285h38.3111l-46.6088-72.2099L700.0742,9.5465Z"/>
  <path class="cls-1" d="M1116.7602,26.3185c0-6.4715,2.2062-12.1524,6.6217-17.0367,4.4124-4.8812,9.9125-7.6205,16.5066-8.2089v-.5301h-51.3767l-103.6328,175.8426L868.1807.5428h-36.0161l13.0656,20.1254c6.2355,9.6552,9.3548,20.3644,9.3548,32.1338v158.8917c-.1164,8.595-2.5585,16.4484-7.3264,23.5695-4.7647,7.1241-11.1505,12.3301-19.154,15.6241v.5301h56.1414v-.5301c-8.0066-3.294-14.4505-8.5612-19.3317-15.8018-4.8842-7.2345-7.3264-15.1492-7.3264-23.7442V40.0888l137.7062,211.3285h38.3111l-46.6088-72.2099,100.1029-169.6622.3554,211.5063v4.5901c0,6.591-2.2093,12.2995-6.6217,17.1255-4.4155,4.826-9.8604,7.5348-16.3319,8.12v.5301h75.3874v-.5301c-6.5941-.5853-12.0942-3.3246-16.5066-8.2089-4.4155-4.8812-6.6217-10.5621-6.6217-17.0367V26.3185Z"/>
  <path class="cls-1" d="M1325.6926,3.5439c17.4166,0,33.5708,4.5319,48.4627,13.5956,14.8887,9.0638,26.2751,21.3602,34.1622,36.8986l-10.7705-53.494h-182.7278v.527c6.4715.5914,11.8889,3.3001,16.2431,8.1231,4.3541,4.8261,6.591,10.4764,6.7105,16.9479v199.8533c-.1195,6.4746-2.3564,12.0942-6.7105,16.859-4.3541,4.7678-9.7716,7.4459-16.2431,8.0342v.5301h168.9574l11.8277,8.8248,12.7131-62.3188c-7.8871,15.5353-19.2736,27.8348-34.1622,36.8985-14.8918,9.0638-31.0461,13.5926-48.4627,13.5926h-58.6142v-120.9361h58.792c8.7083,0,16.6537,2.4452,23.8329,7.3264,7.1763,4.8873,12.416,11.3312,15.713,19.3318h.5301v-56.3161h-.5301c-3.297,8.0036-8.5643,14.4475-15.8018,19.3287-7.2375,4.8873-15.1553,7.3295-23.7441,7.3295h-58.792V3.5439h58.6142Z"/>
  <path class="cls-1" d="M1567.4301,153.4322c-.1194,0-.3554-.0276-.7078-.0858-.3523-.0613-.5914-.0888-.7048-.0888-.2389,0-.5607-.0276-.9713-.0919-.4137-.0552-.7354-.0858-.9714-.0858-.2389,0-2.1204-.2666-5.6503-.7936-3.5298-.5332-7.9453-1.2655-13.2402-2.2093-5.2979-.9376-9.7716-1.8201-13.4179-2.6474V4.073h48.7262c13.6538,0,25.5121,1.5321,35.5748,4.5901,10.0627,3.0611,17.9467,6.974,23.6584,11.7388,5.7084,4.7709,10.2403,10.7735,13.5925,18.008,3.3553,7.2406,5.5614,14.2453,6.6217,21.014,1.0602,6.7687,1.5902,14.5057,1.5902,23.214,0,10.5928-1.4126,20.1867-4.2377,28.7755-2.8251,8.5949-7.0935,16.1573-12.802,22.687-5.7084,6.5327-13.3015,11.5947-22.7728,15.1828-9.4743,3.5943-20.5697,5.3868-33.2798,5.3868-.3523,0-.9712-.0276-1.8538-.0919-.8824-.0552-1.5627-.0858-2.0314-.0858-7.5317-.2329-13.2403-.5853-17.1226-1.0602M1664.0888,133.9258c19.8312-16.7763,29.7468-38.0476,29.7468-63.8232,0-14.947-4.1766-27.7459-12.5325-38.4-8.3589-10.651-19.54-18.5044-33.5463-23.5694-14.0062-5.0589-30.188-7.5899-48.5484-7.5899h-119.7012v.5301c6.4715.5883,11.8889,3.2664,16.2432,8.0311,4.351,4.7678,6.591,10.3875,6.7074,16.8621v199.6756c0,6.591-2.2062,12.2995-6.6186,17.1255-4.4155,4.8261-9.8605,7.5317-16.332,8.12v.5301h75.2097v-.5301c-6.4746-.5883-11.8889-3.294-16.2431-8.12-4.3542-4.826-6.591-10.4733-6.7074-16.9509v-76.2668h.1777c11.7663,24.835,28.5365,45.9317,50.3134,63.2901,21.7739,17.3646,46.3147,28.9256,73.6224,34.6924l37.9557-34.2511c-4.4737.239-7.9422.3554-10.415.3554-28.7173,0-55.9087-5.5921-81.5648-16.7732-25.6623-11.178-48.1409-26.7163-67.4421-46.6088,18.0081,4.5901,35.3114,7.1211,51.9068,7.593,32.0113.8242,57.9339-7.1517,77.7682-23.9219"/>
  <path class="cls-1" d="M1925.4632,234.8216c-14.8917,9.0638-31.0461,13.5956-48.4626,13.5956h-58.6143V26.1405c.1165-6.4715,2.3533-12.1218,6.7105-16.9479,4.351-4.823,9.7685-7.5317,16.24-8.12v-.5301h-75.2096v.5301c6.4715.5883,11.8889,3.297,16.2432,8.12,4.354,4.826,6.591,10.4763,6.7105,16.9479v199.6786c-.1195,6.4746-2.3565,12.1249-6.7105,16.9479-4.3542,4.826-9.7717,7.5348-16.2432,8.12v.5301h169.1352l11.6499,8.8278,1.7681-8.8278h.1745l10.7705-53.494c-7.8871,15.5353-19.2735,27.8379-34.1622,36.8986"/>
</svg>