
<svg xmlns="http://www.w3.org/2000/svg" viewBox="0 0 595.2756 595.2756">
  <defs>
    <style>
      .cls-1 {
        fill: #d69c65;
      }
    </style>
  </defs>
  <path class="cls-1" d="M319.802,410.6605c16.077,0,30.9908-4.1828,44.7367-12.5501,13.7443-8.3624,24.2561-19.72,31.5356-34.0598l-10.1045,49.3794h-186.7694c4.9958-2.0612,10.5364-6.8427,16.6233-14.3398,6.0837-7.4987,14.343-19.4468,24.773-35.8559l111.9628-178.622h-63.8857c-16.0802,0-30.9925,4.1861-44.7367,12.5501-13.7459,8.3689-24.2577,19.7217-31.5356,34.0631l10.1045-49.3827h172.9156v1.3038c-4.7832.9782-9.3455,4.0209-13.6886,9.1263-4.3464,5.1071-11.4083,15.3196-21.1873,30.6409l-117.3414,187.7468h76.5978Z"/>
  <path class="cls-1" d="M297.637,593.8583C134.3015,593.8583,1.4173,460.9736,1.4173,297.6374S134.3015,1.4173,297.637,1.4173s296.2213,132.8839,296.2213,296.2201-132.8841,296.2209-296.2213,296.2209ZM297.637,4.6938C136.1082,4.6938,4.6954,136.108,4.6954,297.6374s131.4129,292.9428,292.9416,292.9428,292.9432-131.4134,292.9432-292.9428S459.1674,4.6938,297.637,4.6938Z"/>
</svg>