<?xml version="1.0" encoding="UTF-8"?>
<svg id="Ebene_1" xmlns="http://www.w3.org/2000/svg" version="1.1" viewBox="0 0 133 131">
  <!-- Generator: Adobe Illustrator 30.0.0, SVG Export Plug-In . SVG Version: 2.1.1 Build 123)  -->
  <defs>
    <style>
      .st0 {
        fill: #d39969;
      }
    </style>
  </defs>
  <g>
    <path class="st0" d="M35.7150673,1.9646567c-.4193036,1.5248176-.8485928,3.0894994-1.2978494,4.7339111-.6589084-.2192546-1.1980163-.4086111-1.747106-.5680695-3.2246581-.9766806-6.489251-1.1361385-9.7538439-.2790518-3.9235013,1.0364773-6.4592999,3.5678738-7.4875973,7.4845624-.8286274,3.1393309-.7088259,6.2786609.5590734,9.2983965,1.4476029,3.4582458,4.1231694,5.441505,7.7771167,6.1491011,1.8968576.3687476,3.7937152.3089494,5.6905747,0,.2495866-.0398654.4991732-.1295588.7487597-.1793906.4891895-.109628.6788758-.4086111.6788758-.9069175-.0099837-2.3221078,0-4.6442156-.0199674-6.9663233,0-.1494915-.0599002-.3089494-.1198024-.5780354h-5.4409862c-.2795377-.8172222-.2995031-3.8867896-.0698839-4.7339109h11.4809825c.0299492.3288822.0798695.6378316.0798695.9467829v14.8096651c0,.9467829,0,.9567474-.9683971,1.2557305-3.6739147,1.1560707-7.427697,1.7241397-11.2713307,1.5148519-2.0665765-.109628-4.1131857-.4185756-6.0699455-1.136138-4.4626073-1.6543771-7.5375148-4.684081-8.9851167-9.2286349-1.4376192-4.5445539-1.3477679-9.0990751.539107-13.5140701,1.8269737-4.2854353,5.0915656-7.0859172,9.4743072-8.5708706,5.0017152-1.6942418,10.0333796-1.5846144,15.0650459-.0996613.2795357.0797291.5490897.1993226.8086619.3189162.0798695.0398645.1497535.1096274.3394379.2591193"/>
    <path class="st0" d="M83.5757878,33.6071147h-5.2513037c-.1297823-1.0863081-.2495866-2.1327508-.39934-3.3386533-.239601.2591196-.4093256.4086111-.5590715.5979681-2.7654159,3.4682121-7.0982428,3.8768232-10.0633326,2.8503132-2.625648-.9069175-4.1131857-2.8503132-4.7920615-5.4116079-.3594053-1.325495-.5590753-2.7307189-.5890245-4.1060437-.0698839-4.385096-.0299492-8.7801593-.0299492-13.1652553,0-.3488149.0299492-.6976288.0499166-1.0165446.7387779-.2292205,4.5225114-.2890177,5.9501469-.0896953.0299492.3687466.0998331.7673923.0998331,1.1760034,0,3.9067223-.0199636,7.8034782.0199636,11.7102005,0,1.0165455.169717,2.0530219.3893544,3.059601.3594053,1.6643435,1.2778821,2.9101095,3.0449593,3.248958,1.9068451.3687476,3.5041977-.2391868,4.742145-1.7440724.8585784-1.0464427,1.1880345-2.2623115,1.1880345-3.5977729v-13.7034262c.7188106-.2890177,4.7820797-.3488149,5.9900778-.0996617.0199636.3488149.0598983.7275269.0598983,1.0962745v16.7430945c0,1.6444108.0898475,3.2888215.1397679,4.9332323v.8670521"/>
    <path class="st0" d="M52.4373679,18.0400217c.3194705-1.9035303-.6788758-3.5977719-2.3660797-4.1459091-1.5174868-.4983064-3.0549411-.378713-4.5923915-.1295598-1.4176499.2391868-2.725485.757426-4.0832365,1.4949192-.5590753-1.245766-.7587415-2.5413629-1.2579147-3.817027.2296192-.1594579.4193036-.3288822.6289592-.4385092,2.8053545-1.4550547,5.8303426-1.8636658,8.9352002-1.7241397.9883645.0498308,2.0066744.189356,2.9551041.4684083,3.1148394.9069175,4.9517968,3.0496356,5.6206908,6.1789992.2495866,1.1560707.3693871,2.3619732.3893544,3.5479411.0599021,2.870246,0,5.74049.0299492,8.6207004.0199674,1.5746482.1198005,3.1592627.1797026,4.7339128v.787325c-1.7570878.0797308-3.4842303.0398654-5.3012203.0298972-.169717-.8371549-.3194705-1.6145117-.5091549-2.5114647-.2495866.2092878-.4492566.3488149-.6189736.5082728-2.6256518,2.3918704-5.6805891,3.1094328-9.0749681,2.1526854-3.763766-1.0564109-5.4210207-4.8435389-4.8519637-8.1124277.4492566-2.6410236,1.9268087-4.5246231,4.2829066-5.7504564,2.186377-1.1461044,4.5624423-1.5846145,6.9884241-1.7739715.8685602-.0697626,1.7371242-.0697626,2.655601-.0996617M52.6769765,22.0464076c-2.2462792-.0498299-4.3727579.0797289-6.3295157,1.1660371-1.1680633.6477979-1.81699,1.6842762-1.8669065,2.9699057-.0798695,1.8337677.6189736,3.0496347,2.3660797,3.5180439,2.5757353.6876634,5.4010534-1.1062408,5.8003934-3.737298.1896844-1.2158669.0299492-2.491532.0299492-3.9166887"/>
    <path class="st0" d="M104.4811619,3.1107613c.0199636,2.2124807.0399348,4.3850965.0598983,6.6673393h5.4609555c.2695502.7175615.3194705,3.4981112.0998331,4.4648249-.3194705.0199327-.6688902.0498308-1.0083319.0498308h-3.7837334c-.708825,0-.7886945.0697626-.7886945.7773577,0,3.4183822-.0199636,6.8367645.0199636,10.2551467,0,.6677307.1397679,1.355394.3394341,1.9932256.3793689,1.2258333,1.1680633,1.7839378,2.4459454,1.813835.638941.0099664,1.2878676-.0597962,1.9367943-.0896953h.6888614c.0399348,1.3753248.0998331,2.7107862.0998331,4.0562138,0,.1893551-.229623.5082709-.4093256.5481363-2.5857133.6278671-5.1614486.8869848-7.6573143-.348813-1.6173238-.7972895-2.5757353-2.1626499-2.925155-3.8867896-.2595722-1.2557324-.4292892-2.5513283-.4592384-3.8269933-.0598983-3.4482813-.0199636-6.8965607-.0299492-10.3548075,0-.2491532-.0299492-.5082728-.0499204-.7773577-.6788758-.3288822-1.3677372-.1494915-2.0266418-.1694243-1.2878676-.0298981-1.2878676-.0099664-1.2978532-1.2756641v-2.1327518c0-.3089504.0399348-.6278662.0698839-1.0165455,1.108165-.0398645,2.1564317-.0896953,3.2945459-.1295598v-2.8104478c0-.6477984,0-1.2856305.0099856-1.9334289,0-.3986452.1597391-.6577643.5890207-.7574255,1.5674034-.3687466,3.1348068-.7574257,4.7121958-1.1361385.1497535-.0398645.3094849,0,.6089919,0"/>
    <path class="st0" d="M93.0101649,33.6170791h-5.9800922c-.2495866-.7474596-.3094849-32.3101855-.0598983-33.5758843,1.976729-.0498306,3.9833996-.0597968,6.0499762,0v33.5659198h-.0099856v.0099645Z"/>
    <path class="st0" d="M117.9788006,31.4544292c-1.8070044,1.1760015-2.3960327,2.9499749-2.6056845,4.9132996-.2196374,2.0729565-.2196374,4.1459091.5191367,6.1391348.6489266,1.7739696,1.7271425,3.1791935,3.5441324,3.9067242.229623.0896953.4392748.2391887.6289554.4185756-1.7570916-.2092878-3.4442917-.568069-5.0416519-1.355394-4.1730879-2.0629882-4.7720941-6.8068673-3.5041977-9.9162982.3693909-.8969531.9883607-1.6045472,1.7371204-2.1925489,1.3777152-1.0763437,2.9850533-1.624478,4.7121958-1.923463"/>
    <path class="st0" d="M120.3249129,17.4221209c-.0499204.1594579-.0598983.2092878-.0798695.2192541-2.3061775.7275269-3.2945459,2.5014984-3.6539511,4.7139781-.2895213,1.7341061-.239601,3.4881448-.0199636,5.2322173.1297823.9667137.4991732,1.8038687,1.3178168,2.4018367.0998331.0697626.1597391.1793906.3793689.4285438-1.8768883-.5381718-3.4842265-1.1560707-4.7521305-2.4516685-2.2362936-2.2822443-1.8669103-6.7072038,1.1381142-8.6904649.8286293-.5481363,1.7770552-.9368166,2.7254888-1.245766.9084988-.2989831,1.8868739-.3986447,2.9351406-.5979681"/>
    <path class="st0" d="M124.0886827,46.9019297c.1397679-.1694224.169717-.2391887.2196374-.2591177,1.986707-.8271905,2.8352999-2.4815676,3.2246619-4.4448922.3693833-1.8636649.2895137-3.737298-.0099856-5.6109312-.1797026-1.136138-.7787089-1.9633285-1.7770552-2.5612946,1.5474398.3787139,3.0050245.8969531,4.2729286,1.8736332,3.0449593,2.3420386,2.4958658,7.2055102-.4891952,9.2485657-1.2379549.8471194-2.6156701,1.2656987-4.0632692,1.5547174-.4093256.0797308-.8286293.1195925-1.3777152.1893551"/>
    <path class="st0" d="M118.9871325,35.6302375c-.3693909-1.3055642-.1198043-2.3320741.6788758-3.2489561.7886945-.9069175,1.7870408-1.4949192,2.8852202-1.9134967,1.3577516-.5182391,2.7454523-.9766801,4.1231675-1.4650201,1.2179761-.4385102,2.455931-.8371549,3.6439655-1.3454277,1.0083243-.4285438,2.0066706-.9467829,2.4259742-2.3520068.1397679.378712.2396086.5282055.2495866.6876634.0598983,1.1959361-.3194781,2.2025134-1.1780413,3.0695674-1.1880345,1.1859698-2.6755608,1.813835-4.203037,2.3520068-1.8569247.6677307-3.7537842,1.2357997-5.6007234,1.9334294-.7487597.2790504-1.4376211.7374952-2.0965257,1.1859679-.3394341.2391887-.5690571.6577643-.9184768,1.0962726"/>
    <path class="st0" d="M45.1095059,72.3554181c-.439271.0398654-.7487597.0797308-1.0582485.0797308-1.2778821,0-2.5657497.0099683-3.8436318,0-.8885276,0-.9983463-.0996598-1.0382811-.9766839-.0998331-2.0430593-.1497535-4.086111-.2495866-6.1291703-.1397679-2.8104478-.3194705-5.6208956-.439271-8.421379-.0998331-2.3619713-.1397679-4.7339109-.2096518-7.0958822-.0399348-1.2756632-.0998331-2.5513302-.1597353-4.0263167-.1397679.3189158-.2296192.458441-.269554.6079344-1.2878676,4.7538436-2.8852202,9.4179918-4.4825728,14.0721718-1.1880307,3.4781804-2.3461142,6.9663252-3.5241631,10.4544701-.3494216,1.0464465-.3594053,1.0464465-1.4875358,1.0464465-.9284624,0-1.8569247-.0298972-2.7853871,0-.5790408.0199289-.8485947-.2092878-1.0183137-.7574279-.9584115-3.1493001-1.9867089-6.2786638-2.925155-9.4379245-1.0981813-3.6774999-2.1564279-7.3649681-3.1947089-11.0524362-.3893544-1.3852912-.6788758-2.7905151-1.0183137-4.195739-.0299511-.1195925-.0698839-.2391887-.1896863-.348813-.2995031,2.8602777-.3094868,5.7404881-.4792058,8.6007696-.1697189,2.9400086-.2895213,5.8700489-.4492566,8.8100574-.1597353,2.9001431-.3394379,5.7903218-.4991732,8.6406351-.8585775.2491532-4.2230044.2989869-5.4509709.109628-.1797026-.7972933,1.7071722-30.5561487,2.0965267-32.8682901.2795367-.0199327.5890245-.0697626.8985113-.0697626h6.0599618c.8685621,0,.8785439,0,1.1381142.8371549,1.6372873,5.2122845,3.3145094,10.4245691,4.8918965,15.6567864.7587434,2.5114647,1.3178168,5.0727594,1.9667415,7.6141213.0299511.109628.099835.219256.1797026.3787101,1.2579166-4.1459091,2.4459492-8.232024,3.7437986-12.2782695,1.307835-4.0761466,2.725485-8.1124277,4.0832365-12.1487088h7.8270352c.6688902,10.9627409,1.2479329,21.8955809,1.8968595,32.8981872h-.0099818Z"/>
    <path class="st0" d="M131.1270196,72.4451172h-4.3527905c-.9284624-.0199289-.9683971-.0797308-1.0282955-.9766839-.0499204-.7574279-.1198043-1.5048875-.1996662-2.4416983-.239601.219256-.3693909.2989869-.4492528.4086149-1.5075051,2.05302-3.5541104,3.169229-6.0699474,3.4582477-2.286214.2591215-4.4126888-.1494934-6.24965-1.5846107-1.5574178-1.2258371-2.3560979-2.9400048-2.7454523-4.82361-.2196374-1.0863043-.3494197-2.2124817-.3594053-3.3286869-.0399348-4.4448922-.0199636-8.8897883-.0099856-13.3346805,0-.3089513.0299492-.6178989.0499204-1.0065773h5.8203608c.0399348.3687457.1098187.7673923.1098187,1.1660352v11.9892509c0,1.2856314.1896882,2.5513302.7188106,3.7373018.9584115,2.1427191,2.9551041,2.7207563,5.0616155,2.0928854,2.0765621-.6179027,3.4243281-2.5015003,3.4742485-4.6940454.0499204-1.9134948.0199636-3.8369578.0199636-5.7504564v-8.5110743c.3793689-.0398654.6489266-.0797308.9184768-.0797308h4.1331607c.9084988,0,.9683971.0398654.9683971.9866484v9.3083638c0,2.8802104-.009978,5.7504564,0,8.6306668,0,1.1162091.0998407,2.2324106.1397679,3.3486197.0199712.4086149,0,.8271905,0,1.4251566"/>
    <path class="st0" d="M103.9919743,72.4451172h-1.8968595c-.8985132,0-1.7970264,0-2.685554-.0099683-.6788758-.0199289-.7587453-.0996598-.868564-.7673885-.0898475-.5282036-.1597391-1.0663754-.2495866-1.6942387-.2196374.1295569-.3594053.1694224-.4592384.2690821-1.4675703,1.5646818-3.2945459,2.3520068-5.4010496,2.6410255-1.2978532.1793906-2.5557641.0597943-3.793719-.3089475-3.2046907-.9567474-5.2213545-4.1558736-4.8719272-7.4845643.3494197-3.2788571,2.1664097-5.3518097,5.0815867-6.6374412,2.4759022-1.1062408,5.1115358-1.355394,7.7771186-1.4949192.3094849-.0199327.6289554-.0298972.9184768-.0398654.469224-1.6244799-.4392748-3.3386514-2.056591-3.9864512-1.0981794-.4385083-2.2462792-.488342-3.4043646-.3886784-1.6372873.1494934-3.2246619.5082709-4.6922246,1.2955959-.2196374.1195925-.469224.1893551-.7787089.3189158-.2096518-.677697-.4193036-1.3055642-.6089919-1.9433957-.1797026-.6079344-.3594053-1.2158688-.5391079-1.8636649,1.0582446-.7275269,2.1963588-1.1261735,3.3644298-1.4450893,2.1763953-.5880017,4.4027032-.8072577,6.6489824-.6079344,2.5557641.219256,4.8120289,1.0564109,6.4293526,3.169229.9983463,1.3055642,1.4975195,2.8104478,1.7171569,4.4149951.1098187.787325.1497535,1.594579.1597391,2.3918723.0199636,2.3320741-.0199636,4.6641483.0199636,6.9962224.0299492,2.0131545.1297823,4.0263167.1996662,6.0295106.0099856.3189158,0,.6278633,0,1.136138M97.9020634,63.0869273h0v-1.6244799c0-.4385083-.2096518-.6477998-.6489266-.6278671-.4792096.0298972-.9584115.0398654-1.4276355.0996598-1.2678965.1494934-2.5358005.2890186-3.7238351.8371549-1.7970264.8371549-2.6056845,2.3320703-2.2762284,4.2754699.169717,1.0165417.6988394,1.7540407,1.6372873,2.2124817,2.6356336,1.2955997,6.2696136-.8570876,6.4493162-3.8369578.0299492-.4484727,0-.8969531,0-1.3354613"/>
    <path class="st0" d="M73.9217808,39.1781804h6.2995627c.0299492.348813.0898475.6876615.0898475,1.02651v31.0743916c0,.3787101-.0499204.7474596-.0798695,1.1560745h-6.1797661c-.0598983-.0597943-.0798695-.0797308-.1098187-.0996598-.0199636-.0199289-.0499204-.0498337-.0598983-.0697626-.0199636-.0896915-.0499204-.1893589-.0499204-.2790504v-32.3201538c0-.1195925.0399348-.2491532.0798695-.488342"/>
    <path class="st0" d="M68.640528,72.4849826h-6.1398313c-.2595684-.7773568-.3094887-32.2304585-.0798695-33.2071386.708825-.1893551,5.1714342-.219256,6.189744-.0498299.239601.6976297.2895213,32.0510679.0199636,33.2569685"/>
    <path class="st0" d="M56.7102889,72.3952835c-2.0765583.0697626-3.9734178.0797308-6.020027,0v-23.5100964c.2495866-.0498299.4492566-.1295607.6589084-.1295607h4.6123589c.638941,0,.708825.0797308.7487597.7075942v22.9420236h0v-.0099607Z"/>
    <path class="st0" d="M53.7452029,38.9090945c1.9767252.0199327,3.3444586,1.3852912,3.324495,3.3286869,0,1.8835976-1.4575847,3.2190589-3.4642629,3.1891618-1.9168231-.0298972-3.3145094-1.4151884-3.294542-3.2688888.0199674-1.9035303,1.4675703-3.2589244,3.4343099-3.2389916"/>
    <path class="st0" d="M123.4098069,17.4619864c.8386072.3288822,1.7071713.5880017,2.4958658.9966128,1.1780489.6079344,1.9767214,1.5646818,2.1763876,2.9200758.1297899.9069175-.2595646,1.7241397-.9983463,2.1626499-.7787089.458441-1.986707.3886784-2.6556048-.2092878-.6888614-.6079344-.938448-1.3852912-.638941-2.2822424.1198043-.3687476.2995069-.7175605.4792096-1.056409.5091587-.9268502.4392748-1.325495-.4093256-1.9932256-.169717-.1395252-.3494197-.2591196-.5291223-.3886784.0199636-.0498299.0499204-.0996617.0698839-.1494915"/>
  </g>
  <path class="st0" d="M26.0500612,90.8838879c-.9239186-1.5644258-2.7249718-4.0278201-6.3972508-3.9577739-3.6722801.0700463-5.5668957,1.0740842-6.8533635,1.7979282-1.0174786-.630443-2.9588748-1.2141856-5.3096019-.7938902s-4.140086,1.7745735-6.0347016,4.7516641c-1.8946157,2.9770907-1.5320657,7.6586996-1.1461255,10.3789421.3859403,2.7202425,1.9063108,6.5846154,2.2571654,9.5617061.3508547,2.9770907,0,7.3551599-.0350854,7.8455015s.1871226.7121666.1286466,1.0157153c-.0584757.3035486-.7134047,4.7750099-.7134047,4.7750099,0,0,2.1986898,1.762905,4.3973797,2.9070355,2.1986899,1.1441393,5.4733339,1.7979282,8.0228788,1.8329513s4.9470515-.630443,7.3679511-1.4360106c-.0701703-.6537888-.1286475-2.2532467.0350863-3.6425568s-.0233909-1.6928499-.0350863-2.1364999c.0935612-.221825.3508539-.723844.5145876-1.1558078.1637315-.4319727.4911967-2.1832004,1.5086743-6.6196386,1.0174798-4.4481155,2.1402139-7.8221468,3.3214252-14.0681994s-.0935612-9.4683051-1.0174798-11.0327309l-.0116954-.0233458ZM25.8629388,102.4419925c-.9239186,4.5998943-2.1636047,7.6236765-3.110912,10.7291912s-1.8595304,7.2967821-1.9413961,10.0403704c-1.1578204.221825-2.0232619.4202954-2.8536193.4553185-.1286463-2.2882698.4327207-4.3780692.8420506-5.9191493.3976356-1.54108,1.964787-4.6115627,1.8244441-9.7835222-.4678059,2.7202425-1.2162953,5.4755081-2.2103853,7.6003307s-2.3507271,5.1719595-1.9998721,8.3124974c-1.1578204,0-2.2337751.0233458-2.467678,0,0-.7471898-.2339029-1.4593564.3976356-3.3273308s1.6490172-5.1836368,1.3449428-6.8881641c-1.0174786,3.9227508-1.1578204,4.308023-1.7425783,5.3587525-.7718803,1.4009786-1.7074932,3.1522063-1.5788468,4.9968349-.9940889-.1284241-1.9297007-.2685255-2.023263-.2918713-.0935612-.0233458-.2339029.0583778-.2806835.1401014-.0467806.0934009-.1520372.2801939.058476.4319727s1.7542738.7121666,4.2687335.8756138c2.5144586.1634472,5.1458692-.1868019,6.2218239-.3852722-.1403429,1.4126559-.0818658,2.8486666-.0935612,3.2572846-.8771369.2334935-2.760057.8989596-5.9294449.8522681-3.1810834-.0350231-8.0345737-.9923606-11.0168393-3.2806304.4678064-3.4674323.8186611-6.8064405.7134048-10.122094s-.2806838-4.9151113-1.7074932-9.9820014c-1.4151142-5.0668812-2.1869946-9.024664-.1052563-12.6905666,2.0817382-3.6659026,5.2394307-4.0511748,7.4965966-3.5608332s4.140086,1.2141856,7.134046,3.584179c.1988178.1984703.2455984.1984703.5964533.2334935.350855.0233458,1.4151153,0,1.6139309,0s.444415,0-.2222086-.5720652-3.4500715-2.6034958-4.3505992-3.0704827c.7134043-.4319727,1.8946155-1.4009786,4.9938321-1.4126559s4.8768811,1.7395504,5.7774089,3.4324091c.9122232,1.6928499,1.3215519,6.2110205.3625493,10.9977078l-.011691-.0116863Z"/>
  <path class="st0" d="M60.6092533,90.8838879c-.9239186-1.5644258-2.724974-4.0278201-6.3972531-3.9577739s-5.5668979,1.0740842-6.8533635,1.7979282c-1.0174775-.630443-2.9588736-1.2141856-5.309603-.7938902s-4.1400871,1.7745735-6.0347016,4.7516641c-1.8946166,2.9770907-1.5320651,7.6586996-1.146125,10.3789421s1.9063098,6.5846154,2.2571659,9.5617061c.3508539,2.9770907,0,7.3551599-.0350863,7.8455015s.1871224.7121666.1286475,1.0157153-.7134054,4.7750099-.7134054,4.7750099c0,0,2.1986888,1.762905,4.3973798,2.9070355,2.198691,1.1441393,5.4733345,1.7979282,8.0228794,1.8329513s4.9470515-.630443,7.3679489-1.4360106c-.0701726-.6537888-.1286475-2.2532467.035084-3.6425568s-.0233909-1.6928499-.035084-2.1364999c.0935634-.221825.3508539-.723844.5145854-1.1558078.1637315-.4319727.4911945-2.1832004,1.5086765-6.6196386,1.0174775-4.4481155,2.1402161-7.8221468,3.3214252-14.0681994s-.0935634-9.4683051-1.0174775-11.0327309l-.0116932-.0233458ZM60.422131,102.4419925c-.9239186,4.5998943-2.1636025,7.6236765-3.110912,10.7291912s-1.8595304,7.2967821-1.9413961,10.0403704c-1.1578226.221825-2.0232619.4202954-2.853617.4553185-.1286475-2.2882698.4327196-4.3780692.8420528-5.9191493.3976356-1.54108,1.964787-4.6115627,1.8244463-9.7835222-.4678081,2.7202425-1.2162975,5.4755081-2.2103842,7.6003307s-2.3507249,5.1719595-1.999871,8.3124974c-1.1578226,0-2.2337751.0233458-2.4676791,0,0-.7471898-.2339041-1.4593564.3976356-3.3273308s1.6490172-5.1836368,1.344945-6.8881641c-1.0174775,3.9227508-1.1578226,4.308023-1.7425806,5.3587525-.7718803,1.4009786-1.7074921,3.1522063-1.5788446,4.9968349-.9940867-.1284241-1.9297029-.2685255-2.0232619-.2918713-.0935634-.0233458-.2339041.0583778-.2806858.1401014-.0467817.0934009-.1520383.2801939.0584749.4319727s1.7542738.7121666,4.2687346.8756138,5.1458715-.1868019,6.2218239-.3852722c-.1403407,1.4126559-.0818658,2.8486666-.0935634,3.2572846-.8771369.2334935-2.7600581.8989596-5.9294449.8522681-3.1810845-.0350231-8.0345726-.9923606-11.0168371-3.2806304.4678081-3.4674323.818662-6.8064405.7134054-10.122094s-.2806858-4.9151113-1.7074921-9.9820014c-1.4151131-5.0668812-2.1869956-9.024664-.1052566-12.6905666,2.0817412-3.6659026,5.2394304-4.0511748,7.4965964-3.5608332s4.1400871,1.2141856,7.1340448,3.584179c.1988156.1984703.2455973.1984703.5964511.2334935.3508539.0233458,1.4151131,0,1.6139331,0s.4444173,0-.2222064-.5720652-3.4500726-2.6034958-4.3506003-3.0704827c.7134054-.4319727,1.8946144-1.4009786,4.9938332-1.4126559s4.8768789,1.7395504,5.7774066,3.4324091c.9122209,1.6928499,1.3215541,6.2110205.3625515,10.9977078l-.0117021-.0116863Z"/>
  <path class="st0" d="M95.1567523,90.8838879c-.9239186-1.5644258-2.724974-4.0278201-6.3972531-3.9577739s-5.5668979,1.0740842-6.8533635,1.7979282c-1.017482-.630443-2.9588736-1.2141856-5.309603-.7938902s-4.1400871,1.7745735-6.0347016,4.7516641-1.5320674,7.6586996-1.146125,10.3789421,1.9063121,6.5846154,2.2571659,9.5617061,0,7.3551599-.035084,7.8455015.1871224.7121666.1286475,1.0157153-.7134054,4.7750099-.7134054,4.7750099c0,0,2.198691,1.762905,4.3973821,2.9070355,2.1986866,1.1441393,5.4733345,1.7979282,8.0228794,1.8329513s4.9470559-.630443,7.3679534-1.4360106c-.0701681-.6537888-.1286475-2.2532467.035084-3.6425568s-.0233864-1.6928499-.035084-2.1364999c.0935634-.221825.3508583-.723844.5145898-1.1558078.1637315-.4319727.4911945-2.1832004,1.5086765-6.6196386,1.017482-4.4481155,2.1402161-7.8221468,3.3214207-14.0681994,1.1812046-6.2460526-.0935634-9.4683051-1.017482-11.0327309l-.0116977-.0233458ZM94.9696255,102.4419925c-.9239186,4.5998943-2.1636025,7.6236765-3.1109164,10.7291912s-1.8595259,7.2967821-1.9414006,10.0403704c-1.1578182.221825-2.0232663.4202954-2.8536215.4553185-.1286475-2.2882698.4327241-4.3780692.8420528-5.9191493.3976311-1.54108,1.964787-4.6115627,1.8244419-9.7835222-.4678081,2.7202425-1.2162975,5.4755081-2.2103842,7.6003307s-2.3507293,5.1719595-1.999871,8.3124974c-1.1578182,0-2.2337795.0233458-2.4676791,0,0-.7471898-.2338996-1.4593564.3976311-3.3273308.6315396-1.8679744,1.6490216-5.1836368,1.344945-6.8881641-1.017482,3.9227508-1.1578182,4.308023-1.7425761,5.3587525-.7718847,1.4009786-1.7074921,3.1522063-1.5788446,4.9968349-.9940867-.1284241-1.9297029-.2685255-2.0232663-.2918713s-.2338996.0583778-.2806813.1401014c-.0467817.0934009-.1520338.2801939.0584794.4319727s1.7542738.7121666,4.2687346.8756138,5.1458715-.1868019,6.2218239-.3852722c-.1403451,1.4126559-.0818658,2.8486666-.0935634,3.2572846-.8771369.2334935-2.7600581.8989596-5.9294449.8522681-3.1810845-.0350231-8.034577-.9923606-11.0168371-3.2806304.4678081-3.4674323.818662-6.8064405.7134054-10.122094s-.2806858-4.9151113-1.7074921-9.9820014c-1.4151131-5.0668812-2.1869934-9.024664-.1052566-12.6905666s5.2394304-4.0511748,7.4965964-3.5608332,4.1400871,1.2141856,7.1340448,3.584179c.1988156.1984703.2455973.1984703.5964556.2334935.3508583.0233458,1.4151131,0,1.6139286,0s.4444128,0-.2222109-.5720652-3.4500682-2.6034958-4.3506003-3.0704827c.7134054-.4319727,1.8946189-1.4009786,4.9938287-1.4126559s4.8768789,1.7395504,5.7774111,3.4324091c.9122209,1.6928499,1.3215497,6.2110205.3625471,10.9977078l-.0116798-.0116863Z"/>
  <path class="st0" d="M129.7159489,90.8838879c-.9239186-1.5644258-2.724974-4.0278201-6.3972531-3.9577739s-5.5668979,1.0740842-6.8533635,1.7979282c-1.017482-.630443-2.9588736-1.2141856-5.309603-.7938902s-4.1400871,1.7745735-6.0346971,4.7516641c-1.8946189,2.9770907-1.5320629,7.6586996-1.1461294,10.3789421.3859424,2.7202425,1.9063076,6.5846154,2.2571659,9.5617061s0,7.3551599-.035084,7.8455015.1871268.7121666.1286475,1.0157153-.7134054,4.7750099-.7134054,4.7750099c0,0,2.1986866,1.762905,4.3973821,2.9070355,2.1986866,1.1441393,5.4733345,1.7979282,8.0228794,1.8329513s4.9470559-.630443,7.3679534-1.4360106c-.0701681-.6537888-.1286475-2.2532467.035084-3.6425568s-.0233864-1.6928499-.035084-2.1364999c.0935634-.221825.3508583-.723844.5145898-1.1558078.1637315-.4319727.4911945-2.1832004,1.5086765-6.6196386,1.017482-4.4481155,2.1402161-7.8221468,3.3214207-14.0681994s-.0935634-9.4683051-1.017482-11.0327309l-.0116977-.0233458ZM129.5288221,102.4419925c-.9239186,4.5998943-2.1636025,7.6236765-3.1109164,10.7291912s-1.8595259,7.2967821-1.9414006,10.0403704c-1.1578182.221825-2.0232663.4202954-2.8536215.4553185-.1286475-2.2882698.4327241-4.3780692.8420528-5.9191493.3976311-1.54108,1.964787-4.6115627,1.8244419-9.7835222-.4678081,2.7202425-1.2162975,5.4755081-2.2103842,7.6003307s-2.3507293,5.1719595-1.999871,8.3124974c-1.1578182,0-2.2337795.0233458-2.4676791,0,0-.7471898-.2338996-1.4593564.3976311-3.3273308.6315396-1.8679744,1.6490216-5.1836368,1.344945-6.8881641-1.017482,3.9227508-1.1578182,4.308023-1.7425761,5.3587525-.7718847,1.4009786-1.7074921,3.1522063-1.5788446,4.9968349-.9940867-.1284241-1.9297029-.2685255-2.0232663-.2918713s-.2338996.0583778-.2806813.1401014c-.0467817.0934009-.1520338.2801939.0584794.4319727s1.7542738.7121666,4.2687346.8756138,5.1458715-.1868019,6.2218239-.3852722c-.1403451,1.4126559-.0818658,2.8486666-.0935634,3.2572846-.8771369.2334935-2.7600581.8989596-5.9294449.8522681-3.1810845-.0350231-8.034577-.9923606-11.0168371-3.2806304.4678081-3.4674323.8186575-6.8064405.7134054-10.122094-.1052521-3.3156535-.2806813-4.9151113-1.7074921-9.9820014-1.4151131-5.0668812-2.1869978-9.024664-.1052521-12.6905666s5.2394349-4.0511748,7.4966008-3.5608332,4.1400871,1.2141856,7.1340448,3.584179c.1988156.1984703.2455973.1984703.5964556.2334935.3508583.0233458,1.4151131,0,1.6139286,0s.4444128,0-.2222109-.5720652-3.4500682-2.6034958-4.3506003-3.0704827c.7134054-.4319727,1.8946189-1.4009786,4.9938287-1.4126559s4.8768789,1.7395504,5.7774111,3.4324091c.9122209,1.6928499,1.3215497,6.2110205.3625471,10.9977078l-.0116887-.0116863Z"/>
</svg>